<svg xmlns="http://www.w3.org/2000/svg" xmlns:xlink="http://www.w3.org/1999/xlink" version="1.1" id="FedExGround" x="0px" y="0px" viewBox="0 0 399.1 160.8" xml:space="preserve" enable-background="new 0 0 399.1 160.8">
  <g>
    <polygon class="svg-orange" points="329 106.7 314.2 90.1 299.5 106.7 268.7 106.7 298.8 72.8 268.7 39 300.5 39 315.4 55.4 329.8 39 360.5 39 330.5 72.7 360.9 106.7 "/>
    <polygon class="svg-orange" points="209.5 106.7 209.5 0 268.7 0 268.7 23.8 234.6 23.8 234.6 39 268.7 39 268.7 61.8 234.6 61.8 234.6 82.8 268.7 82.8 268.7 106.7 "/>
    <path class="svg-purple" d="M184.5 0v43.7h-0.3c-5.5-6.4-12.4-8.6-20.5-8.6 -16.4 0-28.8 11.2-33.1 25.9 -5-16.3-17.7-26.2-36.7-26.2 -15.4 0-27.5 6.9-33.9 18.2V39H28.3V23.8H63V0H0v106.7h28.3V61.8h28.2c-0.8 3.3-1.3 6.8-1.3 10.5 0 22.3 17 37.9 38.7 37.9 18.2 0 30.3-8.6 36.6-24.2h-24.3c-3.3 4.7-5.8 6.1-12.3 6.1 -7.6 0-14.2-6.6-14.2-14.5h49.4c2.1 17.7 15.9 32.9 34.8 32.9 8.2 0 15.6-4 20.2-10.8h0.3v6.9h25V0H184.5zM80.6 62.2C82.2 55.4 87.4 51 94 51c7.2 0 12.2 4.3 13.5 11.2C108.1 62.2 80.6 62.2 80.6 62.2zM169.4 90.4c-9.2 0-14.9-8.6-14.9-17.5 0-9.6 5-18.8 14.9-18.8 10.3 0 14.4 9.2 14.4 18.8C183.8 82 179.4 90.4 169.4 90.4z"/>
    <g>
      <path class="svg-orange" d="M396.6 96.2c0-6.2-4.4-10.7-10.4-10.7 -6 0-10.4 4.5-10.4 10.7s4.4 10.7 10.4 10.7C392.3 106.9 396.6 102.4 396.6 96.2L396.6 96.2 396.6 96.2zM383.5 96.7v7h-2.3V88.3h5.6c3.3 0 4.8 1.4 4.8 4.2 0 1.7-1.2 3.1-2.7 3.3v0.1c1.3 0.2 1.8 1.4 2.1 3.5 0.2 1.4 0.5 3.8 1 4.3h-2.7c-0.6-1.4-0.6-3.5-1-5.2 -0.4-1.3-1.1-1.8-2.6-1.8H383.5L383.5 96.7zM386.3 94.8c2.2 0 2.8-1.2 2.8-2.2 0-1.2-0.6-2.2-2.8-2.2h-2.8v4.4H386.3L386.3 94.8zM373.4 96.2c0-7.6 6-12.7 12.9-12.7 6.8 0 12.9 5.1 12.9 12.7 0 7.6-6 12.7-12.9 12.7C379.4 108.9 373.4 103.8 373.4 96.2L373.4 96.2z"/>
    </g>
    <g>
      <path class="svg-purple" d="M236.9 140.5v17.9c-4.6 1.8-8.8 2.4-13.7 2.4 -10.4 0-16.3-8.2-16.3-19.9 0-9.8 5.2-19.9 16.3-19.9 6.4 0 12.9 3.4 13.5 10.2h-3.9c-0.7-4.9-5-7-9.5-7 -9.2 0-12.6 8.8-12.6 16.7 0 9.7 4.1 16.7 14.4 16.7 2.9 0 5.8-0.8 8.5-1.6v-12.3h-9.6v-3.2H236.9z"/>
      <path class="svg-purple" d="M245.7 160h-3.2v-20.6c0.1-2.1-0.2-4.2-0.3-6h3.3l0.2 3.9h0.1c1-2.7 3.3-4.6 6-4.7 1.1-0.1 2.1 0 3.2 0.1v3.1c-0.6-0.1-1.3-0.2-2-0.2 -4.7 0-7.2 3.4-7.3 8.5V160z"/>
      <path class="svg-purple" d="M280.5 146.7c0 7-3.9 14.1-12.4 14.1 -8.5 0-12.4-7.1-12.4-14.1 0-7 3.9-14.1 12.4-14.1C276.6 132.6 280.5 139.7 280.5 146.7zM268.2 135.6c-6.4 0-9 6.2-9 11.2 0 4.9 2.5 11.2 9 11.2 6.4 0 8.9-6.2 8.9-11.2C277.1 141.8 274.6 135.6 268.2 135.6z"/>
      <path class="svg-purple" d="M302.1 133.4h3.2V154c0 2.1 0.2 4.2 0.3 6h-3.3l-0.2-3.9L302 156c-1.9 3.3-4.9 4.8-8.3 4.8 -8.7 0-9.4-7.7-9.4-10.8v-16.6h3.2v17.2c0 4.6 2.6 7.3 7 7.3 5.2 0 7.6-4.4 7.6-9.2V133.4z"/>
      <path class="svg-purple" d="M313.6 160h-3.2v-20.6c0-2.1-0.2-4.2-0.3-6h3.3l0.2 3.9 0.1 0.1c1.9-3.3 4.9-4.8 8.3-4.8 8.7 0 9.4 7.7 9.4 10.8V160h-3.2v-17.2c0-4.6-2.6-7.3-7-7.3 -5.2 0-7.6 4.4-7.6 9.2V160z"/>
      <path class="svg-purple" d="M355.5 156.1l-0.1-0.2c-2.2 3.2-5.4 4.9-9.1 4.9 -7.9 0-10.9-7.5-10.9-14.2 0-6.9 3-14 10.9-14 3.5 0 7.3 1.7 9.1 4.8l0.1-0.1v-15.6h3.2V154c0 2.1 0.2 4.2 0.3 6h-3.3L355.5 156.1zM346.8 135.6c-6 0-8 5.6-8 10.7 0 4.9 1.4 11.7 7.5 11.7 6.9 0 9.1-5.8 9.1-11.8C355.4 140.7 353 135.6 346.8 135.6z"/>
    </g>
  </g>
</svg>
