<svg xmlns="http://www.w3.org/2000/svg" xmlns:xlink="http://www.w3.org/1999/xlink" version="1.1" id="MyGroundBiz" x="0px" y="0px" viewBox="0 0 608.7 100.7" xml:space="preserve" enable-background="new 0 0 608.7 100.7">
  <g>
    <path class="svg-purple" d="M5.6 77.4V10h23.6l14.3 49 15.4-49h22.9v67.4H67.4V19.6L49 77.4H37.1l-18-57.8v57.8H5.6z"/>
    <path class="svg-purple" d="M89.3 30.3h14.9l10.3 32.6 10.5-32.6h13.7L121 76.5l-5.7 18.7h-13.9l6-17.7L89.3 30.3z"/>
    <path class="svg-purple" d="M206.5 30.7h-15c-0.1-2.9-0.7-5.1-1.9-6.8 -2.2-3.5-5.9-5.2-11.3-5.2 -3.9 0-7.2 0.8-9.9 2.5 -2.8 1.6-4.8 3.8-6.1 6.6 -1.3 2.7-2.2 5.4-2.8 8.1 -0.6 2.7-0.8 5.5-0.8 8.5 0 8 1.9 14 5.6 18.1 3.5 3.9 8.8 5.8 15.8 5.8 4.3 0 8-0.4 11-1.3V52.7h-13V41.5h27.5v33.6c-7.5 2.5-15.7 3.7-24.6 3.7 -13 0-22.5-3-28.6-8.9 -6-5.8-8.9-14.2-8.9-25.2 0-11.6 3.3-20.6 9.8-27 6.5-6.4 15-9.6 25.5-9.6 10.3 0 18 2.8 22.9 8.5C204.7 20.1 206.3 24.8 206.5 30.7z"/>
    <path class="svg-purple" d="M218.4 77.4V41.9c0-3.6-0.2-7.5-0.7-11.7h13l0.3 9c0.6-1.3 1.1-2.4 1.7-3.3 0.6-0.9 1.5-1.8 2.7-2.9 1.2-1.1 2.8-1.9 4.8-2.4 2-0.5 4.3-0.7 6.9-0.6v12.4c-3.3-0.3-6-0.2-8.2 0.4 -2.1 0.6-3.7 1.5-4.6 2.9 -0.9 1.4-1.5 2.7-1.7 3.9 -0.2 1.2-0.4 2.8-0.4 4.6v23.2H218.4z"/>
    <path class="svg-purple" d="M250.2 54.2c0-3 0.4-6 1.3-8.8s2.1-5.5 3.9-8c1.8-2.5 4.3-4.5 7.6-6.1 3.3-1.5 7.1-2.3 11.6-2.3 8.1 0 14.2 2.3 18.3 7 4.1 4.7 6.2 10.6 6.2 17.7 0 7.1-2.1 13.1-6.3 17.9 -4.2 4.8-10.3 7.2-18.4 7.2 -7 0-12.8-2.1-17.3-6.4C252.4 68.3 250.2 62.2 250.2 54.2zM264.3 54.3c0 10.1 3.4 15.1 10.3 15.1 3.3 0 5.8-1.2 7.5-3.6 1.7-2.4 2.6-6.6 2.6-12.5 0-9.9-3.4-14.9-10.3-14.9C267.7 38.4 264.3 43.7 264.3 54.3z"/>
    <path class="svg-purple" d="M308.8 30.3h14v28.1c0 1.2 0 2.1 0 2.8 0 0.7 0.2 1.5 0.4 2.6 0.2 1.1 0.6 1.9 1.1 2.6 0.5 0.6 1.2 1.2 2.2 1.7 1 0.5 2.2 0.7 3.6 0.7 1.7 0 3.2-0.3 4.3-0.8 1.1-0.6 2-1.2 2.6-1.9 0.6-0.7 1-1.8 1.4-3.4 0.3-1.5 0.5-2.8 0.5-3.8s0-2.6 0-4.7V30.3h14.2v31c0.1 2.9 0.1 5.4 0.1 7.3 0 2 0.1 3.2 0.1 3.9 0 0.6 0 1.1 0 1.4 0.1 1.1 0.2 2.3 0.4 3.4h-13.4l-0.5-6.2c-3.4 5-8 7.5-13.9 7.5 -3 0-5.8-0.6-8.3-1.8 -2.5-1.2-4.5-2.7-5.8-4.5 -2.1-2.5-3.1-6.8-3.1-12.7V30.3z"/>
    <path class="svg-purple" d="M366.4 77.4V38.7c0-3.5-0.1-6.4-0.3-8.6h13.2l0.4 7.1c3.4-5.5 8.5-8.2 15.3-8.2 4.1 0 7.3 0.9 9.6 2.7 2.3 1.8 3.9 3.9 4.7 6.1 0.9 2.4 1.3 7.1 1.3 14.1v25.4h-14.1V48.1c0-2.4-0.2-4.1-0.7-5.1 -1.3-2.7-3.5-4-6.7-4s-5.6 1.2-7.2 3.6c-1.1 1.6-1.7 4-1.7 7.2v27.6H366.4z"/>
    <path class="svg-purple" d="M454.3 36.1v-26h13.9v59.7c0 2.7 0.1 5.3 0.4 7.6h-14l-0.4-6.8c-1.3 2.4-2.9 4.1-4.8 5.3 -2.5 1.6-5.5 2.4-9.1 2.4 -6.3 0-11.2-2.1-14.7-6.2 -3.5-4.1-5.3-9.9-5.3-17.2 0-7.7 1.9-13.8 5.7-18.4 3.8-4.6 8.8-6.9 15.1-6.9C446.8 29.6 451.2 31.8 454.3 36.1zM434.3 54.5c0 4.3 0.8 7.8 2.3 10.6 1.6 2.8 3.9 4.2 7.2 4.2 1.9 0 3.7-0.5 5.2-1.5 1.6-1 2.7-2.3 3.5-3.8 1.5-2.9 2.2-6.6 2.2-11.1 0-4.5-0.9-8-2.8-10.5 -1.8-2.5-4.3-3.7-7.5-3.7 -2.2 0-4 0.6-5.5 1.7 -1.5 1.2-2.5 2.7-3.2 4.5 -0.7 1.9-1.1 3.5-1.3 5S434.3 53 434.3 54.5z"/>
    <path class="svg-purple" d="M480.4 77.4V10.1h25.2c7.6 0 13.2 1.1 16.6 3.2 5 3.2 7.5 8 7.5 14.4 0 4.3-1.3 7.6-3.9 10.1 -0.5 0.6-1.5 1.4-2.9 2.4s-3 1.8-4.7 2.2v0.2c4.8 0.9 8.4 2.8 10.7 5.9 2.4 3.1 3.5 6.6 3.5 10.5 0 3.7-0.9 6.9-2.8 9.6s-4.2 4.8-7.1 6.2c-3.5 1.8-9.1 2.7-17 2.7H480.4zM494.2 20.4v17.1h10.1c1.2 0 2.1 0 2.8 0 0.7 0 1.7-0.2 2.9-0.5 1.2-0.3 2.2-0.7 2.9-1.3 0.7-0.6 1.4-1.4 2-2.6 0.6-1.1 0.9-2.6 0.9-4.2 0-1.6-0.3-3-0.8-4.1 -0.6-1.1-1.2-1.9-1.9-2.5 -0.7-0.5-1.7-0.9-2.9-1.3 -1.2-0.3-2.3-0.5-3-0.5 -0.8 0-1.8 0-3.1 0H494.2zM494.2 47.9v18.6h9.8c1.8 0 3.2 0 4.1 0 0.9 0 2.1-0.2 3.6-0.5 1.5-0.3 2.6-0.8 3.4-1.4 0.7-0.6 1.4-1.5 2-2.7 0.6-1.2 0.9-2.7 0.9-4.4 0-1.9-0.3-3.4-1-4.7 -0.7-1.3-1.5-2.2-2.4-2.8 -0.9-0.6-2.2-1.1-3.8-1.4 -1.6-0.3-3-0.5-4-0.6 -1 0-2.5 0-4.3 0H494.2z"/>
    <path class="svg-purple" d="M541.8 22.1v-12h14.7v12H541.8zM542.3 77.4V30.2h13.8v47.2H542.3z"/>
    <path class="svg-purple" d="M565.1 77.4V65.2L589 39.5h-23.2v-9.2h38.6v11.8l-23.9 25.7h24.8v9.5H565.1z"/>
  </g>
</svg>
