<svg xmlns="http://www.w3.org/2000/svg" xmlns:xlink="http://www.w3.org/1999/xlink" version="1.1" id="safety" x="0px" y="0px" viewBox="0 0 24 24" xml:space="preserve" enable-background="new 0 0 24 24"><path id="safety" d="M11.6 1c-0.7 0.2-1 0.5-1.7 1.8C9.6 3.3 8.2 5.7 6.7 8.3c-4 6.9-5.7 9.7-5.8 9.9 -0.6 1.1 0.1 2.7 1.4 2.9 0.2 0 3 0 10.1 0l9.8 0 0.2-0.1c0.9-0.4 1.5-1.4 1.3-2.3 -0.1-0.4-0.3-0.7-3.4-5.9 -1.6-2.7-3.6-6.2-4.5-7.6 -2.1-3.6-2.1-3.5-2.5-3.8C12.9 1 12.1 0.9 11.6 1M12.8 4.9c1 0.5 1.1 1.1 0.8 3.6 -0.4 2.5-0.8 3.9-1.3 4.6l-0.2 0.2L12 13.1c-0.4-0.5-0.7-1.4-1.1-3.2 -0.4-2.1-0.5-3.5-0.4-3.9C10.9 5 12 4.5 12.8 4.9M12.9 15.2c0.8 0.4 1.2 1.2 1 2 -0.5 1.8-2.9 1.8-3.4 0C10.1 15.8 11.6 14.6 12.9 15.2"/></svg>
