<svg xmlns="http://www.w3.org/2000/svg" xmlns:xlink="http://www.w3.org/1999/xlink" version="1.1" id="vehicles" x="0px" y="0px" viewBox="0 0 24 24" xml:space="preserve" enable-background="new 0 0 24 24"><path d="M18.8 16.6c0.3-0.3 0.7-0.4 1.1-0.4 0.4 0 0.8 0.2 1.1 0.4 0.3 0.3 0.5 0.7 0.5 1.2 0 0.9-0.7 1.6-1.7 1.6 -0.9 0-1.6-0.7-1.6-1.6C18.2 17.3 18.4 16.9 18.8 16.6"/><path d="M15.7 10.5c0-0.6 0.5-1 1-1H19c0.6 0 1 0.5 1 1v0.6c0 0.6-0.5 1-1 1h-2.3c-0.6 0-1-0.5-1-1V10.5zM14.5 9v7.3h3.2c0.4-0.9 1.2-1.5 2.2-1.5 1 0 1.9 0.6 2.2 1.5h1 0.1 0.1v0c0.2-0.1 0.4-0.2 0.4-0.5v-0.2c0-0.2-0.1-0.4-0.4-0.5v-0.8c0-0.6-0.4-1.2-0.8-1.5l-0.1-0.1c-0.5-0.3-0.8-1-0.8-1.5v-0.9c0-0.6-0.3-1.3-0.6-1.6C20.6 8.2 19.9 8 19.4 8h-3.9C15 8 14.5 8.4 14.5 9"/><path d="M1.2 6h11.3c0.6 0 1 0.5 1 1v1.6 6.5 1h-1 -4H6.6c-0.4-0.8-1.2-1.4-2.2-1.4 -1 0-1.8 0.6-2.2 1.4h-1c-0.6 0-1-0.5-1-1V7C0.2 6.5 0.7 6 1.2 6"/><path d="M3.5 16.4c0.3-0.2 0.6-0.3 0.9-0.3 0.4 0 0.7 0.1 0.9 0.3 0.4 0.3 0.7 0.8 0.7 1.3 0 0.9-0.7 1.6-1.7 1.6 -0.9 0-1.7-0.7-1.7-1.6C2.7 17.2 3 16.7 3.5 16.4"/></svg>
