<svg xmlns="http://www.w3.org/2000/svg" xmlns:xlink="http://www.w3.org/1999/xlink" version="1.1" id="customers" x="0px" y="0px" viewBox="0 0 24 24" xml:space="preserve" enable-background="new 0 0 24 24"><path d="M11.1 22.1v-3.6l-1.8-0.2c-0.1 0-0.2-0.1-0.2-0.2 0-0.1 0-0.2 0-0.3l1.9-2.5c0.2-0.3 0.7-0.6 1.2-0.6l0 0c0 0 0 0 0 0h5.7c-0.5-1.7-1.6-3.5-3.8-4.9 -0.8 0.5-1.8 0.8-3 0.8 -1.1 0-2.2-0.3-3-0.8 -5.4 3.5-4.2 9.9-4.2 9.9s2.9 2.4 7.1 2.4C11.1 22.3 11.1 22.2 11.1 22.1M15.8 4.9c0 2.5-2.1 4.6-4.6 4.6 -2.5 0-4.6-2-4.6-4.6 0-2.5 2-4.6 4.6-4.6C13.7 0.3 15.8 2.3 15.8 4.9M20.5 15.6c0.2 0 0.5 0.1 0.6 0.3l1.4 1.9L20.8 18l-2 0.2 0 0c-0.2 0-0.4-0.1-0.4-0.3l-0.8-1.7 -0.3-0.6H20.5M15.9 16.3c0.1 0 0.1 0.1 0.1 0.2v7.2c0 0 0 0.1-0.1 0.1l-3.8-1.2c-0.2 0-0.3-0.2-0.3-0.4v-3.6l2 0.2 0.1 0c0.4 0 0.8-0.3 1-0.6L15.9 16.3M12.2 15.6l3.3 0 -0.3 0.6 -0.8 1.7c-0.1 0.1-0.3 0.3-0.4 0.3l0 0L11.8 18l-1.7-0.2 1.4-1.9C11.7 15.8 12 15.6 12.2 15.6M16.8 16.3l1 1.9c0.2 0.3 0.6 0.6 1 0.6l2-0.2v3.6c0 0.2-0.1 0.4-0.3 0.4l-3.8 1.2c0 0 0 0-0.1 0 0 0 0 0 0-0.1v-7.2C16.6 16.4 16.7 16.3 16.8 16.3"/></svg>
