<svg xmlns="http://www.w3.org/2000/svg" xmlns:xlink="http://www.w3.org/1999/xlink" version="1.1" id="operations" x="0px" y="0px" viewBox="0 0 24 24" xml:space="preserve" enable-background="new 0 0 24 24"><path id="path4" d="M1 2.3C0.1 2.5 0.5 3.5 0.5 3.5 0.8 3.8 0.9 4 3.6 4.7c0.3 0.1 0.5 0.1 0.7 0.2 0.3 0.1 0.5 0.2 0.6 0.4 0.2 0.4 0.6 0.9 1 1.6 1.3 2.2 3.1 5.2 4.9 8 1.3 2.2 1.2 2 1.1 2.1 -0.1 0.1-0.6 0.6-0.8 0.8 -2 2.7 0.6 6.3 3.8 5.2 1.9-0.6 2.8-2.7 2-4.6 -0.1-0.3-0.1-0.3-0.1-0.4 0 0 0.5-0.3 1-0.6 3.1-1.9 4.1-2.5 4.3-2.6 0.4-0.2 0.8-0.5 1.1-0.7 0 0 0.7-0.5 0.2-1.2 -0.4-0.3-0.5-0.7-4.3 1.7 -0.9 0.5-2.1 1.3-2.7 1.6l-1 0.6L15 16.7c-0.2-0.1-0.5-0.1-0.8-0.2 -0.2 0-0.4-0.1-0.4-0.1 0 0-0.4-0.6-0.8-1.3 -0.9-1.4-5.7-9.4-6.5-10.7C5.8 3.3 5.9 3.4 4.9 3.1 4.6 3.1 3.8 2.9 3.2 2.7 1.7 2.4 1.5 2.3 1.2 2.3M17.1 3.3c-0.5 0.3-2.3 1.4-2.3 1.4 0 0 0.1 0.2 0.2 0.3 0.3 0.5 0.5 0.8 0.5 1 0 0.1-1.1 0.8-1.3 0.8 -0.1 0-0.4-0.4-0.6-0.8 -0.1-0.2-0.2-0.4-0.2-0.4 -0.1-0.1-2.5 1.4-2.6 1.6 -0.1 0.2-0.1 0.6 0 0.8 0 0.1 1.9 3.1 3.2 5.3 0.7 1.1 0.8 1.2 1.1 1.3 0.2 0 1-0.4 2.7-1.4l0.1-0.1 -0.3-0.4c-0.3-0.4-0.4-0.8-0.4-0.9 0.2-0.2 0.7-0.5 1-0.7l0.4-0.2 0.1 0.2c0.3 0.5 0.2 0.3 0.4 0.6 0.2 0.4 0.3 0.6 0.4 0.6 0 0 1.9-1.1 2.3-1.4 0.3-0.2 0.4-0.3 0.5-0.6 0-0.3 0-0.4-1.1-2.1C20.3 7.2 19.5 5.8 19 5c-0.5-0.8-0.9-1.5-1-1.6C17.8 3.2 17.4 3.1 17.1 3.3M14.2 18.6c1.1 0.4 1.2 1.9 0.2 2.5 -1.2 0.6-2.4-0.6-1.8-1.8C12.9 18.7 13.6 18.4 14.2 18.6"/><line x1="18.4" y1="10.9" x2="18.4" y2="11"/></svg>
