<?xml version="1.0" encoding="utf-8"?>
<!-- Generator: Adobe Illustrator 19.0.0, SVG Export Plug-In . SVG Version: 6.00 Build 0)  -->
<!DOCTYPE svg PUBLIC "-//W3C//DTD SVG 1.1//EN" "http://www.w3.org/Graphics/SVG/1.1/DTD/svg11.dtd">
<svg version="1.1" id="Layer_1" xmlns="http://www.w3.org/2000/svg" xmlns:xlink="http://www.w3.org/1999/xlink" x="0px" y="0px"
	 viewBox="0 0 75.4 75.4" style="enable-background:new 0 0 75.4 75.4;" xml:space="preserve">
<path class="st0" d="M0,0v75.4h75.4V0H0z M23.5,63.3H12.9V29.1h10.6V63.3z M18.2,24.4c-3.4,0-6.2-2.8-6.2-6.2c0-3.4,2.8-6.2,6.2-6.2
	c3.4,0,6.2,2.8,6.2,6.2C24.4,21.7,21.6,24.4,18.2,24.4z M63.3,63.3H52.7V46.6c0-4-0.1-9.1-5.5-9.1c-5.5,0-6.4,4.3-6.4,8.8v16.9H30.2
	V29.1h10.2v4.7h0.1c1.4-2.7,4.9-5.5,10.1-5.5c10.7,0,12.7,7.1,12.7,16.3V63.3z"/>
</svg>
