<?xml version="1.0" encoding="utf-8"?>
<!-- Generator: Adobe Illustrator 19.0.0, SVG Export Plug-In . SVG Version: 6.00 Build 0)  -->
<!DOCTYPE svg PUBLIC "-//W3C//DTD SVG 1.1//EN" "http://www.w3.org/Graphics/SVG/1.1/DTD/svg11.dtd">
<svg version="1.1" id="Layer_1" xmlns="http://www.w3.org/2000/svg" xmlns:xlink="http://www.w3.org/1999/xlink" x="0px" y="0px"
	 viewBox="0 0 24 24" style="enable-background:new 0 0 24 24;" xml:space="preserve">
<g>
	<path d="M8.2,7.2c0-0.5,0-0.9,0-1.3C8.2,4.8,8.9,4.1,10,4c1.4,0,2.7,0,4.1,0c1.1,0,1.7,0.7,1.7,1.8c0,0.4,0,0.9,0,1.4
		c0.2,0,0.3,0,0.4,0c1.1,0,2.2,0,3.2,0c1.2,0,1.9,0.7,1.9,1.9c0,3,0,6.1,0,9.1c0,1.1-0.7,1.8-1.8,1.9c0,0-0.1,0-0.1,0
		c-4.9,0-9.7,0-14.6,0C4,20,3.3,19.8,3,19.1c-0.1-0.2-0.2-0.5-0.2-0.8c0-3.1,0-6.3,0-9.4c0-0.9,0.7-1.6,1.6-1.7c1.2,0,2.3,0,3.5,0
		C7.9,7.2,8.1,7.2,8.2,7.2z M14.2,7.2c0-0.5,0-0.9,0-1.4c0-0.1-0.2-0.2-0.3-0.2c-1.3,0-2.6,0-4,0c-0.1,0-0.2,0.1-0.3,0.2
		c0,0.5,0,0.9,0,1.4"/>
</g>
</svg>
