<svg xmlns="http://www.w3.org/2000/svg" xmlns:xlink="http://www.w3.org/1999/xlink" version="1.1" id="recognition" x="0px" y="0px" viewBox="0 0 24 24" xml:space="preserve" enable-background="new 0 0 24 24"><path id="recognition" d="M10.8 2.7C8.5 7.3 8.4 7.4 8.3 7.5c-0.1 0.1-1.9 0.3-6.5 1C1 8.6 0.4 8.7 0.4 8.7c-0.1 0 0 0.1 2.9 2.9 1.3 1.3 2.5 2.4 2.6 2.6l0.2 0.2 -0.3 1.5c-0.1 0.8-0.5 2.6-0.7 4 -0.2 1.4-0.4 2.5-0.4 2.5 0 0 2.8-1.4 5.8-3l1.4-0.7 1.2 0.6c1.6 0.8 5.7 3 5.9 3.1 0.1 0.1 0.2 0.1 0.2 0.1 0 0 0-0.3-0.1-0.7 -0.4-2.3-0.9-5.3-1.1-6.3l-0.2-1.1 0.2-0.2c0.1-0.1 1.3-1.3 2.7-2.6 2.9-2.9 3-2.9 2.9-2.9 0 0-1.4-0.2-3.1-0.5 -1.7-0.2-3.5-0.5-4-0.6l-1-0.1 -0.5-1.1c-0.3-0.6-1.1-2.2-1.8-3.7L12 0.2 10.8 2.7"/></svg>
