<svg xmlns="http://www.w3.org/2000/svg" xmlns:xlink="http://www.w3.org/1999/xlink" version="1.1" id="news" x="0px" y="0px" viewBox="0 0 24 24" xml:space="preserve" enable-background="new 0 0 24 24"><path id="path3" d="M3.8 2.6c-1 0.3-1.5 0.9-1.5 2.3v0.7H2.1C1.3 5.7 0.7 6.2 0.5 6.9c-0.1 0.3-0.1 1-0.1 6.5 0 4.8 0 5.2 0.1 5.3 0.2 0.7 0.7 1.2 1.4 1.4 0.2 0.1 0.4 0.1 10.2 0.1h10l0.2-0.1c0.7-0.2 1.2-0.7 1.4-1.4 0.1-0.3 0.1-14.5 0-14.8 -0.2-0.7-0.7-1.2-1.5-1.4C21.8 2.5 4.1 2.5 3.8 2.6M19.2 4.2c0.9 0.2 1 1 1 1l-0.6 0c0 0-0.2-0.8-1-0.6 -0.1 0-0.2 0.1-0.3 0.3 0 0 0 0.2 0 0.3 0 0.2 0.4 0.5 0.9 0.6C20 6 20.3 6.3 20.2 6.9c-0.2 1.4-2.7 1.4-2.9 0V6.8h0.8v0.1c0.2 0.7 1.4 0.6 1.4 0 0-0.2-0.2-0.3-0.9-0.5 -0.7-0.2-1-0.4-1.1-0.8C17.2 4.7 18.2 3.9 19.2 4.2M7.2 5.5c0.4 0.7 0.7 1.4 0.7 1.4l0-2.7h0.8v3.6H7.6L6.1 4.7v3.2H5.5V4.2h1C6.5 4.2 6.8 4.8 7.2 5.5M11.7 4.5v0.3h-1.6v0.8h1.4v0.6h-1.4v1H11h0.8v0.6H9.4V4.2h2.3L11.7 4.5M13 4.2l0.6 2.6 0.7-2.6h0.8c0 0 0.3 1.3 0.4 1.8s0.2 0.9 0.2 0.9 0.1-0.3 0.4-1.7c0.1-0.5 0.2-0.9 0.2-0.9h0.6L16 7.7h-0.8L14.7 5 14 7.7h-0.8l-0.9-3.5L13 4.2M2.3 9.2c0 1.6 0 4.5 0 6.5v3.6c0 0-1.3 0-1.3-1.1C1 18 0.8 6.9 1 6.8c0-0.4 1.1-0.4 1.2-0.4C2.3 6.3 2.3 7.1 2.3 9.2M12.2 9.5c0.3 0.2 0.3 0.7 0 0.8 -0.2 0.1-7.1 0.1-7.3 0 -0.4-0.1-0.4-0.7 0-0.8C5.1 9.5 12.1 9.5 12.2 9.5M21.2 9.5c0.2 0.1 0.2 0 0.2 3.4v3l-0.1 0.2c-0.1 0.2 0.2 0.1-3.9 0.1 -4 0-3.7 0-3.9-0.2 -0.1-0.1-0.1-5.6-0.1-6 0-0.2 0-0.4 0.2-0.5l0.2 0h3.6H21l0.1 0M17.1 10.7c-0.8 0.3-0.8 1.4-0.1 1.7 0.8 0.4 1.6-0.5 1.3-1.2C18.1 10.8 17.5 10.5 17.1 10.7M9 11.4h3.1c0 0 0.7 0.6-0.1 0.9 -1.2 0-2.4 0-3.6 0 -1.2 0-2.4 0-3.6 0 -0.2 0-0.3-0.7-0.1-0.8 0.1-0.1 0.2-0.1 0.3-0.1C6.3 11.4 7.7 11.4 9 11.4M17.9 12.6c-0.2 0.1-0.6 0.1-0.9 0h-0.3l-0.2 0.2c-0.4 0.4-0.7 1.6-0.5 1.8 0.6 0.5 1.9 0.5 2.7 0.1 0.2-0.1 0.2-0.1 0.2-0.3 0-0.6-0.2-1.2-0.6-1.6C18.1 12.6 18.1 12.6 17.9 12.6M12.2 13.4c0.4 0.1 0.3 0.7-0.1 0.8 -0.2 0-7.1 0-7.2 0 -0.3-0.1-0.4-0.4-0.2-0.7l0.1-0.1h0.9C7.8 13.4 12.1 13.4 12.2 13.4M12.3 15.4c0.2 0 0.1 0.7 0 0.7 -0.3 0.1 0 0.1-3.7 0.1 -3.6 0-3.7 0-3.9-0.2C4.4 15.4 5 15.3 5 15.3 6.2 15.3 12.1 15.3 12.3 15.4M21 17.2c0.5 0.1 0.4 0.6 0.3 0.8 -0.2 0.2 0.1 0.1-3.9 0.2h-3.5L13.7 18c-0.2-0.2-0.2-0.5 0-0.7l0.1-0.1h3.5c1.9 0 2.9-0.1 3.6-0.1L21 17.2zM12.3 17.4c0.2 0.2 0.2 0.4 0 0.6l-0.1 0.1h-0.6c-1.2 0-6.4 0-6.6 0 -0.5 0-0.5-0.4-0.5-0.4 0.1-0.5-0.1-0.5 4.1-0.4h3.6L12.3 17.4"/></svg>
