<svg xmlns="http://www.w3.org/2000/svg" xmlns:xlink="http://www.w3.org/1999/xlink" version="1.1" id="vendors" x="0px" y="0px" viewBox="0 0 24 24" xml:space="preserve" enable-background="new 0 0 24 24"><circle cx="9" cy="21.4" r="2.2"/><circle cx="18.7" cy="21.4" r="2.2"/><path d="M6.3 16.3C5.6 12.9 4.1 6.5 3.8 4.9 3.7 4.6 3.6 4.4 3.4 4.2 2.8 3.7 1.5 2.6 1 2.2 0.4 1.6 1 0.4 1.8 0.4c0.4 0 2.7 1.9 3.1 2.4L5.1 3c0.3 0.4 0.5 0.9 0.6 1.4l0 0L21 4.5c0.9 0 2.3 0.8 2.3 2.7l-1.6 8.6c-0.1 1-1 1.8-1.9 1.8H8.2C7 17.6 6.4 16.8 6.3 16.3zM9.8 8V6.8c0-0.2-0.1-0.3-0.3-0.3H6.4C6.2 6.5 6 6.7 6.1 6.9L6.4 8c0 0.1 0.2 0.2 0.3 0.2h2.8C9.7 8.3 9.8 8.1 9.8 8zM10.1 11.7v-1.6c0-0.2-0.1-0.3-0.3-0.3H7.4C7.2 9.8 7 10 7.1 10.2l0.3 1.6c0 0.1 0.2 0.2 0.3 0.2h2.1C10 12 10.1 11.8 10.1 11.7zM10.4 15.5v-1.4c0-0.3-0.3-0.6-0.6-0.6H8.1c-0.2 0-0.3 0.2-0.3 0.4l0.3 1.7c0 0.1 0.2 0.2 0.3 0.2h1.7C10.3 15.8 10.4 15.7 10.4 15.5zM16 15.5v-1.7c0-0.2-0.1-0.3-0.3-0.3H12c-0.2 0-0.3 0.1-0.3 0.3v1.7c0 0.2 0.1 0.3 0.3 0.3h3.7C15.9 15.8 16 15.7 16 15.5zM16 11.7v-1.6c0-0.2-0.1-0.3-0.3-0.3H12c-0.2 0-0.3 0.1-0.3 0.3v1.6c0 0.2 0.1 0.3 0.3 0.3h3.7C15.9 12 16 11.8 16 11.7zM16.3 8V6.8c0-0.2-0.1-0.3-0.3-0.3h-4.3c-0.2 0-0.3 0.1-0.3 0.3V8c0 0.2 0.1 0.3 0.3 0.3H16C16.2 8.3 16.3 8.1 16.3 8zM19 15.8c0.2 0 0.3-0.1 0.3-0.4l0.5-2h-2.3c-0.2 0-0.3 0.1-0.3 0.3v1.7c0 0.2 0.1 0.3 0.3 0.3L19 15.8zM20.2 11.7l0.3-1.6c0-0.2-0.1-0.4-0.3-0.4h-2.4c-0.2 0-0.3 0.1-0.3 0.3v1.6c0 0.2 0.1 0.3 0.3 0.3h2.1C20.1 12 20.2 11.9 20.2 11.7zM20.6 8.3c0.1 0 0.3-0.1 0.3-0.2l0.3-1.2c0-0.2-0.2-0.3-0.3-0.3h-3c-0.2 0-0.3 0.1-0.3 0.3V8c0 0.2 0.1 0.3 0.3 0.3H20.6z"/></svg>
