<svg xmlns="http://www.w3.org/2000/svg" xmlns:xlink="http://www.w3.org/1999/xlink" version="1.1" id="agreements" x="0px" y="0px" viewBox="0 0 24 24" xml:space="preserve" enable-background="new 0 0 24 24"><path d="M16.9 5.2l4.2 0 -4.7-4.5 0 4C16.5 5 16.7 5.2 16.9 5.2zM17.4 6.5c-1.2 0-2.2-1-2.2-2.2V0.7H5.3c-1.3 0-2.5 1.1-2.5 2.5v17.8c0 1.3 1.1 2.5 2.5 2.5h13.4c1.3 0 2.5-1.1 2.5-2.5V6.5H17.4zM7.3 6.8h6.4c0.4 0 0.8 0.4 0.8 0.8 0 0.4-0.4 0.8-0.8 0.8H7.3C6.8 8.4 6.5 8 6.5 7.6 6.5 7.1 6.8 6.8 7.3 6.8zM16.4 19.2H7.3c-0.4 0-0.8-0.4-0.8-0.8 0-0.4 0.4-0.8 0.8-0.8h9.1c0.4 0 0.8 0.4 0.8 0.8C17.2 18.9 16.8 19.2 16.4 19.2zM16.4 15.6H7.3c-0.4 0-0.8-0.4-0.8-0.8 0-0.4 0.4-0.8 0.8-0.8h9.1c0.4 0 0.8 0.4 0.8 0.8C17.2 15.2 16.8 15.6 16.4 15.6zM16.4 12H7.3c-0.4 0-0.8-0.4-0.8-0.8 0-0.4 0.4-0.8 0.8-0.8h9.1c0.4 0 0.8 0.4 0.8 0.8C17.2 11.6 16.8 12 16.4 12z"/></svg>
