<svg xmlns="http://www.w3.org/2000/svg" xmlns:xlink="http://www.w3.org/1999/xlink" version="1.1" id="icon--globe" x="0px" y="0px" viewBox="0 0 24 24" xml:space="preserve" enable-background="new 0 0 24 24">
  <path d="M12 0C5.4 0 0 5.4 0 12s5.4 12 12 12 12-5.4 12-12S18.6 0 12 0zM21 7.1c0.7 1.2 1.1 2.6 1.2 4.1h-3.7c-0.1-1.5-0.3-2.8-0.6-4.1H21zM12.8 2.1C14 2.5 15 3.7 15.7 5.5h-2.9C12.8 5.5 12.8 2.1 12.8 2.1zM11.2 2.1v3.3h-3C9 3.7 10 2.5 11.2 2.1zM11.2 7.1v4.1H7.1c0.1-1.5 0.3-2.9 0.6-4.1H11.2zM11.2 12.8v4.1H7.7c-0.3-1.2-0.6-2.6-0.6-4.1C7.1 12.8 11.2 12.8 11.2 12.8zM11.2 18.5v3.3c-1.2-0.3-2.2-1.5-3-3.3H11.2zM12.8 21.9v-3.3h2.9C15 20.3 14 21.5 12.8 21.9zM12.8 16.9v-4.1h4.1c-0.1 1.5-0.3 2.9-0.6 4.1H12.8zM12.8 11.2V7.1h3.5c0.3 1.2 0.6 2.6 0.6 4.1H12.8zM19.9 5.5h-2.4c-0.5-1.1-1-2.1-1.5-2.9C17.5 3.2 18.8 4.2 19.9 5.5zM8 2.6C7.4 3.4 6.9 4.4 6.5 5.5H4.1C5.2 4.2 6.5 3.2 8 2.6zM3 7.1h3c-0.3 1.3-0.5 2.7-0.6 4.1H1.8C1.9 9.7 2.4 8.3 3 7.1zM3 16.9c-0.7-1.2-1.1-2.6-1.2-4.1h3.7c0.1 1.5 0.3 2.8 0.6 4.1H3zM4.1 18.5h2.4c0.4 1.1 0.9 2.1 1.5 2.9C6.5 20.8 5.2 19.8 4.1 18.5zM16 21.4c0.6-0.8 1.1-1.8 1.5-2.9h2.4C18.8 19.8 17.5 20.8 16 21.4zM21 16.9h-3c0.3-1.3 0.5-2.7 0.6-4.1h3.7C22.1 14.3 21.6 15.7 21 16.9z"/>
</svg>
