<?xml version="1.0" encoding="utf-8"?>
<!-- Generator: Adobe Illustrator 19.0.0, SVG Export Plug-In . SVG Version: 6.00 Build 0)  -->
<!DOCTYPE svg PUBLIC "-//W3C//DTD SVG 1.1//EN" "http://www.w3.org/Graphics/SVG/1.1/DTD/svg11.dtd">
<svg version="1.1" id="Layer_1" xmlns="http://www.w3.org/2000/svg" xmlns:xlink="http://www.w3.org/1999/xlink" x="0px" y="0px"
	 viewBox="-293 385 24 24" style="enable-background:new -293 385 24 24;" xml:space="preserve">
<path d="M-281.2,395.9c-2.3-0.6-3-1.2-3-2.1c0-1.1,1-1.9,2.7-1.9c1.8,0,2.4,0.9,2.5,2.1h2.2c-0.1-1.7-1.1-3.3-3.2-3.8V388h-3v2.2
	c-1.9,0.4-3.5,1.7-3.5,3.6c0,2.3,1.9,3.5,4.7,4.1c2.5,0.6,3,1.5,3,2.4c0,0.7-0.5,1.8-2.7,1.8c-2.1,0-2.9-0.9-3-2.1h-2.2
	c0.1,2.2,1.8,3.4,3.7,3.8v2.2h3v-2.1c2-0.4,3.5-1.5,3.5-3.6C-276.5,397.5-278.9,396.5-281.2,395.9z"/>
</svg>
