<?xml version="1.0" encoding="utf-8"?>
<!-- Generator: Adobe Illustrator 19.0.0, SVG Export Plug-In . SVG Version: 6.00 Build 0)  -->
<!DOCTYPE svg PUBLIC "-//W3C//DTD SVG 1.1//EN" "http://www.w3.org/Graphics/SVG/1.1/DTD/svg11.dtd">
<svg version="1.1" id="Layer_1" xmlns="http://www.w3.org/2000/svg" xmlns:xlink="http://www.w3.org/1999/xlink" x="0px" y="0px"
	 viewBox="0 0 75 75" style="enable-background:new 0 0 75 75;" xml:space="preserve">
<path class="st0" d="M0,0v75h75V0H0z M63,25.6c-0.2,5-3.7,11.8-10.4,20.4c-6.9,9-12.8,13.5-17.6,13.5c-3,0-5.5-2.7-7.5-8.2
	c-1.4-5-2.7-10.1-4.1-15.1c-1.5-5.5-3.2-8.2-4.9-8.2c-0.4,0-1.7,0.8-4,2.4L12,27.3c2.5-2.2,5-4.4,7.4-6.7c3.4-2.9,5.9-4.4,7.6-4.6
	c4-0.4,6.4,2.3,7.3,8.2c1,6.3,1.7,10.2,2.1,11.7c1.1,5.2,2.4,7.8,3.8,7.8c1.1,0,2.7-1.7,4.8-5.1c2.1-3.4,3.3-6,3.4-7.7
	c0.3-2.9-0.8-4.4-3.4-4.4c-1.2,0-2.5,0.3-3.8,0.8c2.5-8.2,7.3-12.2,14.4-12C60.8,15.6,63.3,19,63,25.6z"/>
</svg>
